<svg width="26" height="26" viewBox="0 0 26 26" fill="none" xmlns="http://www.w3.org/2000/svg">
<path d="M0 13C0 5.83984 5.78906 0 13 0C20.1602 0 26 5.83984 26 13C26 20.2109 20.1602 26 13 26C5.78906 26 0 20.2109 0 13ZM18.8398 10.7656C19.3984 10.207 19.3984 9.34375 18.8398 8.78516C18.2813 8.22656 17.418 8.22656 16.8594 8.78516L11.375 14.2695L9.08984 12.0352C8.53125 11.4766 7.66797 11.4766 7.10938 12.0352C6.55078 12.5938 6.55078 13.457 7.10938 14.0156L10.3594 17.2656C10.918 17.8242 11.7813 17.8242 12.3398 17.2656L18.8398 10.7656Z" fill="#292929"/>
</svg>
