<svg width="23" height="23" viewBox="0 0 23 23" fill="none" xmlns="http://www.w3.org/2000/svg">
<path d="M11.411 22.8219C5.08144 22.8219 0 17.7405 0 11.411C0 5.12602 5.08144 0 11.411 0C17.6959 0 22.8219 5.12602 22.8219 11.411C22.8219 17.7405 17.6959 22.8219 11.411 22.8219ZM10.3412 11.411C10.3412 11.7675 10.5195 12.1241 10.7869 12.3024L15.066 15.1552C15.5563 15.5118 16.225 15.378 16.537 14.8877C16.8936 14.3974 16.7598 13.7288 16.2695 13.3722L12.4807 10.8761V5.34889C12.4807 4.76942 11.9904 4.27911 11.3664 4.27911C10.7869 4.27911 10.2966 4.76942 10.2966 5.34889L10.3412 11.411Z" fill="white"/>
</svg>
