<svg width="37" height="37" viewBox="0 0 37 37" fill="none" xmlns="http://www.w3.org/2000/svg">
<path d="M18.3568 36.7135C8.17449 36.7135 0 28.539 0 18.3568C0 8.2462 8.17449 0 18.3568 0C28.4673 0 36.7135 8.2462 36.7135 18.3568C36.7135 28.539 28.4673 36.7135 18.3568 36.7135ZM16.6358 18.3568C16.6358 18.9304 16.9226 19.5041 17.3529 19.7909L24.2367 24.3801C25.0254 24.9537 26.101 24.7386 26.603 23.9498C27.1766 23.1611 26.9615 22.0855 26.1727 21.5118L20.0777 17.4963V8.60473C20.0777 7.67255 19.2889 6.88378 18.285 6.88378C17.3529 6.88378 16.5641 7.67255 16.5641 8.60473L16.6358 18.3568Z" fill="#292929"/>
</svg>
