<svg width="37" height="28" viewBox="0 0 37 28" fill="none" xmlns="http://www.w3.org/2000/svg">
<path d="M18.3568 20.6514C19.5041 20.6514 20.7231 20.2928 21.7269 19.5041L36.7135 7.88767V24.0932C36.7135 26.0293 35.136 27.5351 33.2716 27.5351H3.44189C1.50583 27.5351 0 26.0293 0 24.0932V7.88767L14.9149 19.5041C15.9187 20.2928 17.1378 20.6514 18.3568 20.6514ZM1.1473 5.8799C0.430236 5.30625 0 4.37407 0 3.44189C0 1.57753 1.50583 0 3.44189 0H33.2716C35.136 0 36.7135 1.57753 36.7135 3.44189C36.7135 4.37407 36.2116 5.30625 35.4945 5.8799L20.2928 17.7114C19.1455 18.5719 17.4963 18.5719 16.349 17.7114L1.1473 5.8799Z" fill="#292929"/>
</svg>
