<svg width="24" height="18" viewBox="0 0 24 18" fill="none" xmlns="http://www.w3.org/2000/svg">
<path d="M11.9071 13.3955C12.6513 13.3955 13.442 13.1629 14.0932 12.6513L23.8142 5.11633V15.628C23.8142 16.8839 22.7909 17.8606 21.5816 17.8606H2.23258C0.976753 17.8606 0 16.8839 0 15.628V5.11633L9.67451 12.6513C10.3257 13.1629 11.1164 13.3955 11.9071 13.3955ZM0.744193 3.81399C0.279072 3.44189 0 2.83724 0 2.23258C0 1.02327 0.976753 0 2.23258 0H21.5816C22.7909 0 23.8142 1.02327 23.8142 2.23258C23.8142 2.83724 23.4886 3.44189 23.0235 3.81399L13.1629 11.4885C12.4187 12.0466 11.3489 12.0466 10.6047 11.4885L0.744193 3.81399Z" fill="white"/>
</svg>
