<svg width="221" height="221" viewBox="0 0 221 221" fill="none" xmlns="http://www.w3.org/2000/svg">
<circle cx="110.5" cy="110.5" r="110.5" fill="#A6A6A6"/>
<circle cx="110.5" cy="110.5" r="81.7052" fill="#676767"/>
<path d="M119.199 90.5882C119.199 93.0541 121.117 94.972 123.583 94.972H141.118V136.619C141.118 140.318 138.104 143.195 134.542 143.195H101.526V130.728C103.992 129.769 105.773 127.714 106.458 125.111L106.595 124.563C106.732 124.152 106.732 123.878 106.869 123.604C107.006 123.467 107.28 123.193 107.554 122.919L107.965 122.508C110.02 120.453 110.842 117.302 110.02 114.425L109.883 113.877C109.883 113.466 109.746 113.055 109.746 112.918C109.746 112.644 109.883 112.37 110.02 111.823V111.412C110.842 108.535 110.02 105.384 107.828 103.192L107.554 102.918C107.28 102.507 107.006 102.37 106.869 102.096C106.732 101.959 106.732 101.548 106.595 101.137L106.458 100.589C105.636 97.712 103.444 95.383 100.568 94.698L100.02 94.5611C99.6086 94.4241 99.3346 94.2871 99.0606 94.2871C98.9236 94.0131 98.6496 93.8761 98.3756 93.6021L97.9646 93.1911C96.4577 91.5471 94.2657 90.5882 92.0738 90.5882C91.3888 90.5882 90.5668 90.7252 89.8819 90.9992L89.3339 91.1362C88.9229 91.1362 88.6489 91.2732 88.5119 91.2732V79.6285C88.5119 76.0666 91.3888 73.0527 95.0877 73.0527H119.199V90.5882ZM123.583 73.0527L141.118 90.5882H123.583V73.0527ZM102.211 124.015C102.074 124.426 101.937 124.7 101.8 124.974C101.253 125.933 100.431 126.618 99.3346 126.892C97.4166 127.44 97.8276 127.303 97.1426 127.577V143.195L88.5119 138.811L79.7442 143.195V127.577C79.3332 127.44 79.3332 127.44 79.0592 127.303C78.9222 127.303 78.5112 127.166 77.5523 126.892C76.1823 126.481 75.0863 125.385 74.6753 124.015C74.5384 123.33 74.4014 122.782 74.2644 122.371C73.8534 121.275 73.5794 121.001 72.0724 119.494C71.7984 119.22 71.6614 118.946 71.3875 118.672C70.9765 117.713 70.7025 116.617 71.1135 115.521C71.7984 112.644 71.7984 113.055 71.1135 110.316C70.7025 109.22 70.9765 108.124 71.3875 107.165C71.6614 106.891 71.7984 106.617 72.0724 106.343C73.3054 104.973 73.7164 104.699 74.1274 103.877C74.2644 103.466 74.4014 102.781 74.6753 101.685C75.0863 100.315 76.1823 99.2189 77.5523 98.8079C80.2922 98.1229 79.8812 98.2599 81.9361 96.205C82.3471 95.931 82.7581 95.657 83.1691 95.383C83.3061 95.383 83.3061 95.383 83.4431 95.246C83.8541 95.109 84.402 94.972 84.813 94.972C85.224 94.972 85.498 95.109 85.772 95.109C87.142 95.52 87.6899 95.794 88.3749 95.794C89.0599 95.794 89.6079 95.52 90.9778 95.109C91.3888 95.109 91.6628 94.972 92.0738 94.972C92.4848 94.972 93.0328 95.109 93.4438 95.246C93.5807 95.383 93.5807 95.383 93.7177 95.383C94.1287 95.657 94.5397 95.931 94.9507 96.205C95.0877 96.479 95.3617 96.753 95.4987 96.89C95.9097 97.301 96.1837 97.575 96.4577 97.712C97.1426 98.2599 97.6906 98.3969 99.3346 98.8079C100.431 99.2189 101.253 99.9039 101.8 100.726C101.937 101 102.074 101.411 102.211 101.685C102.348 102.507 102.485 102.918 102.622 103.329C103.033 104.562 103.307 104.699 104.814 106.343C105.773 107.302 106.184 108.809 105.773 110.316C105.088 113.055 105.088 112.644 105.773 115.521C106.184 116.891 105.773 118.398 104.814 119.494C103.307 121.001 103.033 121.138 102.622 122.371C102.485 122.782 102.348 123.33 102.211 124.015ZM88.5119 121.275C93.3068 121.275 97.1426 117.439 97.1426 112.507C97.1426 107.713 93.3068 103.74 88.5119 103.74C87.8269 103.74 87.2789 103.877 86.731 104.014C85.498 104.151 84.539 104.699 83.5801 105.247C82.6211 105.932 81.7991 106.754 81.1141 107.713C80.2922 109.083 79.7442 110.727 79.7442 112.507C79.7442 114.425 80.2922 116.069 81.1141 117.439C81.7991 118.398 82.6211 119.22 83.5801 119.905C84.539 120.453 85.498 120.864 86.731 121.138C87.2789 121.275 87.8269 121.275 88.5119 121.275Z" fill="white"/>
<path d="M144.077 205.977L143.43 204.324L147.718 202.647L144.656 194.817L146.661 194.033L150.369 203.516L144.077 205.977Z" fill="white"/>
<path d="M137.219 197.414L139.447 196.815L138.697 207.561L136.018 208.281L129.984 199.36L132.212 198.761L136.715 205.684L136.792 205.664L137.219 197.414ZM138.398 201.242L133.136 202.657L132.699 201.034L137.961 199.619L138.398 201.242Z" fill="white"/>
<path d="M127.437 199.937L128.902 210.013L124.927 210.591C124.162 210.702 123.49 210.651 122.91 210.437C122.33 210.227 121.862 209.884 121.505 209.41C121.145 208.94 120.916 208.371 120.819 207.701C120.722 207.032 120.78 206.421 120.995 205.867C121.209 205.314 121.569 204.854 122.075 204.489C122.578 204.125 123.217 203.886 123.991 203.774L126.525 203.406L126.773 205.113L124.583 205.431C124.174 205.491 123.846 205.61 123.601 205.79C123.353 205.973 123.182 206.201 123.087 206.472C122.99 206.748 122.965 207.051 123.013 207.382C123.062 207.717 123.172 207.999 123.342 208.229C123.51 208.462 123.739 208.628 124.028 208.727C124.317 208.829 124.669 208.85 125.082 208.79L126.518 208.581L125.307 200.247L127.437 199.937Z" fill="white"/>
<path d="M116.486 201.22L118.792 201.155L115.567 211.432L112.794 211.511L108.997 201.433L111.303 201.367L114.075 209.147L114.155 209.145L116.486 201.22ZM116.744 205.217L111.297 205.371L111.25 203.691L116.696 203.537L116.744 205.217Z" fill="white"/>
<path d="M106.386 201.394L105.378 211.526L103.236 211.313L103.652 207.133L99.3032 206.7L98.8874 210.88L96.7502 210.668L97.758 200.536L99.8952 200.749L99.4789 204.934L103.827 205.366L104.244 201.181L106.386 201.394Z" fill="white"/>
<path d="M93.1364 208.396L92.7419 210.127L84.5888 208.268L84.9833 206.538L88.0225 207.231L89.8912 199.034L91.9658 199.507L90.0972 207.704L93.1364 208.396Z" fill="white"/>
<path d="M80.7158 207.194L78.6964 206.463L80.8767 200.442L80.7972 200.413L74.4799 204.936L72.7083 204.295L76.1752 194.721L78.1992 195.454L76.0172 201.48L76.0873 201.505L82.4297 196.986L84.1826 197.621L80.7158 207.194Z" fill="white"/>
<path d="M66.2836 189.979L68.1954 190.958L64.3579 198.455L65.6501 199.116C66.0189 199.305 66.3536 199.407 66.6544 199.424C66.9507 199.441 67.2122 199.378 67.4389 199.233C67.6655 199.088 67.8559 198.866 68.01 198.565C68.1625 198.267 68.2296 197.987 68.2114 197.724C68.1931 197.461 68.0887 197.218 67.8981 196.994C67.7075 196.77 67.4293 196.564 67.0635 196.377L64.9835 195.312L65.7719 193.772L68.1616 194.995C68.8549 195.35 69.3891 195.769 69.764 196.251C70.1389 196.734 70.3459 197.257 70.385 197.82C70.4226 198.387 70.2874 198.971 69.9793 199.573C69.6727 200.172 69.2793 200.628 68.799 200.94C68.3143 201.254 67.7681 201.408 67.1604 201.403C66.5482 201.398 65.8999 201.221 65.2154 200.871L61.6441 199.043L66.2836 189.979ZM69.0624 196.607L66.9957 195.549L71.311 192.553L73.4263 193.636L69.0624 196.607Z" fill="white"/>
<path d="M33.305 175.952L34.6181 174.758L37.7152 178.164L43.9354 172.509L45.3836 174.101L37.8503 180.951L33.305 175.952Z" fill="white"/>
<path d="M38.8555 166.485L40.2078 168.354L29.8984 171.475L28.2722 169.227L34.4635 160.415L35.8158 162.284L30.947 168.955L30.9936 169.019L38.8555 166.485ZM35.6976 168.948L32.5035 164.533L33.8649 163.548L37.059 167.963L35.6976 168.948Z" fill="white"/>
<path d="M33.0148 158.241L24.14 163.232L22.171 159.731C21.7924 159.057 21.5985 158.412 21.5892 157.793C21.577 157.177 21.7278 156.616 22.0416 156.113C22.3509 155.608 22.8003 155.19 23.3896 154.859C23.9789 154.527 24.5704 154.362 25.1641 154.363C25.7577 154.363 26.3158 154.534 26.8385 154.876C27.3595 155.214 27.8117 155.724 28.1952 156.406L29.4502 158.637L27.9465 159.483L26.8621 157.554C26.659 157.193 26.4295 156.931 26.1737 156.767C25.9134 156.601 25.6395 156.523 25.3521 156.533C25.0601 156.541 24.7683 156.627 24.4765 156.791C24.1818 156.957 23.958 157.161 23.8051 157.403C23.6476 157.643 23.5748 157.916 23.5867 158.221C23.5957 158.528 23.7026 158.864 23.9073 159.228L24.6188 160.493L31.9596 156.365L33.0148 158.241Z" fill="white"/>
<path d="M27.8834 148.484L28.77 150.613L18.0193 151.282L16.9531 148.72L25.0039 141.567L25.8905 143.697L19.6189 149.07L19.6495 149.143L27.8834 148.484ZM24.2441 150.155L22.1499 145.125L23.7013 144.479L25.7954 149.509L24.2441 150.155Z" fill="white"/>
<path d="M24.1068 139.116L14.282 141.789L13.7169 139.711L17.7706 138.609L16.6235 134.392L12.5698 135.495L12.006 133.422L21.8308 130.75L22.3945 132.822L18.3361 133.926L19.4832 138.143L23.5417 137.039L24.1068 139.116Z" fill="white"/>
<path d="M12.8363 129.207L11.0781 129.45L9.93356 121.167L11.6917 120.924L12.1184 124.012L20.4462 122.861L20.7375 124.969L12.4096 126.119L12.8363 129.207Z" fill="white"/>
<path d="M9.56514 117.209L9.52556 115.061L15.9279 114.943L15.9263 114.859L9.44293 110.578L9.4082 108.694L19.5883 108.506L19.628 110.658L13.2207 110.777L13.222 110.851L19.7109 115.157L19.7452 117.021L9.56514 117.209Z" fill="white"/>
<path d="M20.4669 97.5707L20.2396 99.7064L11.865 98.8152L11.7114 100.259C11.6675 100.671 11.692 101.02 11.7849 101.306C11.8748 101.589 12.0279 101.811 12.2442 101.97C12.4605 102.13 12.7368 102.228 13.0729 102.263C13.4058 102.299 13.6915 102.261 13.93 102.15C14.1685 102.038 14.3581 101.854 14.499 101.595C14.6398 101.337 14.7319 101.003 14.7754 100.595L15.0227 98.2713L16.7431 98.4543L16.459 101.124C16.3766 101.898 16.1775 102.547 15.8619 103.07C15.5462 103.593 15.1324 103.974 14.6203 104.213C14.105 104.452 13.5112 104.535 12.8388 104.463C12.1698 104.392 11.6032 104.189 11.1389 103.853C10.6718 103.513 10.3319 103.058 10.1191 102.489C9.90344 101.916 9.83629 101.247 9.91766 100.483L10.3422 96.4933L20.4669 97.5707ZM15.278 102.543L15.5237 100.234L19.8692 103.187L19.6177 105.55L15.278 102.543Z" fill="white"/>
<path d="M21.7912 61.752L23.3748 62.5535L21.2959 66.6611L28.7969 70.4574L27.8248 72.3781L18.7402 67.7803L21.7912 61.752Z" fill="white"/>
<path d="M32.6124 63.5641L31.3498 65.4947L24.7521 56.9803L26.2705 54.6586L36.7129 57.2936L35.4504 59.2243L27.4804 57.0596L27.4368 57.1262L32.6124 63.5641ZM29.184 61.4943L32.1662 56.934L33.5726 57.8537L30.5903 62.414L29.184 61.4943Z" fill="white"/>
<path d="M38.228 55.1652L30.4134 48.6382L32.9885 45.5551C33.4836 44.9623 34.0185 44.552 34.5934 44.3239C35.1657 44.0937 35.7429 44.0359 36.325 44.1508C36.9067 44.2609 37.457 44.5327 37.9759 44.9661C38.4948 45.3995 38.8592 45.8939 39.0691 46.4492C39.279 47.0045 39.3171 47.587 39.1836 48.1967C39.0522 48.8038 38.7358 49.4075 38.2344 50.0079L36.5931 51.9729L35.2691 50.8671L36.6873 49.1691C36.9529 48.8511 37.117 48.5434 37.1797 48.246C37.242 47.9439 37.2177 47.6602 37.1068 47.3948C36.9955 47.1248 36.8114 46.8825 36.5545 46.6679C36.295 46.4512 36.0251 46.3143 35.7446 46.2571C35.4638 46.1952 35.1828 46.224 34.9017 46.3433C34.6181 46.4606 34.3425 46.6794 34.0748 47L33.1442 48.1142L39.608 53.513L38.228 55.1652Z" fill="white"/>
<path d="M45.5246 46.8985L43.8537 48.4889L39.3801 38.6904L41.3895 36.7778L50.9516 41.7332L49.2807 43.3236L42.0177 39.3921L41.9601 39.4469L45.5246 46.8985ZM42.661 44.099L46.6079 40.3424L47.7664 41.5596L43.8195 45.3162L42.661 44.099Z" fill="white"/>
<path d="M52.9211 40.0176L46.9209 31.7916L48.66 30.523L51.1357 33.917L54.6663 31.3417L52.1906 27.9477L53.9258 26.682L59.926 34.908L58.1909 36.1737L55.7122 32.7756L52.1817 35.3509L54.6603 38.749L52.9211 40.0176Z" fill="white"/>
<path d="M58.1317 25.9679L57.272 24.4152L64.5875 20.3643L65.4473 21.917L62.7203 23.4271L66.7928 30.7817L64.9313 31.8125L60.8588 24.4578L58.1317 25.9679Z" fill="white"/>
<path d="M68.1891 18.5823L70.1815 17.7805L72.5721 23.7209L72.6505 23.6893L74.3417 16.1063L76.0897 15.4028L79.8909 24.8485L77.8938 25.6522L75.5014 19.7071L75.4322 19.735L73.7199 27.3319L71.9903 28.0279L68.1891 18.5823Z" fill="white"/>
<path d="M90.423 21.7766L88.3462 22.3244L86.1983 14.181L84.7946 14.5513C84.394 14.6569 84.0764 14.8041 83.8417 14.9929C83.6093 15.1775 83.457 15.3994 83.3848 15.6584C83.3126 15.9174 83.3196 16.2103 83.4058 16.5372C83.4912 16.8609 83.6283 17.1144 83.8172 17.2976C84.006 17.4809 84.2462 17.5924 84.5378 17.632C84.8293 17.6716 85.1738 17.6391 85.5712 17.5342L87.8305 16.9383L88.2718 18.6112L85.6759 19.2959C84.9228 19.4945 84.2456 19.5395 83.6445 19.4307C83.0434 19.3218 82.5401 19.0707 82.1347 18.6772C81.7284 18.2805 81.439 17.7552 81.2666 17.1014C81.095 16.4509 81.0836 15.8489 81.2324 15.2955C81.3836 14.738 81.6873 14.2585 82.1436 13.8571C82.6022 13.4517 83.2033 13.1509 83.9468 12.9548L87.8262 11.9315L90.423 21.7766ZM83.9293 18.6974L86.1742 18.1053L84.962 23.217L82.6642 23.8231L83.9293 18.6974Z" fill="white"/>
<path d="M134.466 12.1516L134.108 13.8901L129.599 12.9631L127.906 21.1979L125.797 20.7644L127.848 10.7911L134.466 12.1516Z" fill="white"/>
<path d="M135.557 23.0778L133.365 22.3589L139.878 13.7795L142.514 14.644L142.676 25.4127L140.484 24.6938L140.509 16.435L140.433 16.4102L135.557 23.0778ZM136.667 19.23L141.845 20.9281L141.321 22.5248L136.144 20.8268L136.667 19.23Z" fill="white"/>
<path d="M145.125 26.3225L149.386 17.0749L153.034 18.7558C153.735 19.0789 154.271 19.4882 154.642 19.9836C155.013 20.4759 155.22 21.018 155.261 21.6099C155.306 22.2002 155.188 22.8024 154.905 23.4164C154.622 24.0305 154.24 24.5114 153.758 24.8589C153.277 25.2065 152.725 25.3954 152.101 25.4257C151.481 25.4574 150.816 25.3096 150.105 24.9822L147.78 23.9109L148.502 22.344L150.511 23.2698C150.887 23.4431 151.227 23.5213 151.531 23.5042C151.838 23.4854 152.106 23.3879 152.333 23.2116C152.565 23.0337 152.751 22.7927 152.891 22.4886C153.032 22.1816 153.094 21.8852 153.076 21.5996C153.062 21.3123 152.961 21.0486 152.773 20.8085C152.585 20.5653 152.302 20.3563 151.923 20.1816L150.604 19.5741L147.08 27.2232L145.125 26.3225Z" fill="white"/>
<path d="M155.005 31.214L153.037 30.0104L161.348 23.1581L163.714 24.6055L161.396 35.1229L159.429 33.9194L161.351 25.8875L161.283 25.846L155.005 31.214ZM156.97 27.7245L161.618 30.5674L160.742 32.001L156.093 29.1581L156.97 27.7245Z" fill="white"/>
<path d="M163.562 36.5801L169.943 28.6457L171.62 29.9948L168.988 33.2685L172.393 36.0071L175.026 32.7334L176.699 34.0793L170.319 42.0138L168.645 40.6678L171.281 37.3902L167.875 34.6516L165.239 37.9292L163.562 36.5801Z" fill="white"/>
<path d="M178.491 37.9633L179.768 36.7309L185.574 42.7487L184.297 43.9811L182.133 41.7378L176.083 47.5751L174.605 46.0438L180.655 40.2065L178.491 37.9633Z" fill="white"/>
<path d="M188.215 45.7456L189.509 47.4596L184.399 51.3183L184.45 51.3857L192.211 51.0383L193.347 52.542L185.221 58.6776L183.924 56.9597L189.038 53.0979L188.993 53.0384L181.213 53.369L180.089 51.8812L188.215 45.7456Z" fill="white"/>
<path d="M190.934 68.0423L189.864 66.1805L197.165 61.9823L196.441 60.7239C196.234 60.3647 196.009 60.0965 195.766 59.9191C195.527 59.743 195.273 59.6538 195.004 59.6517C194.735 59.6495 194.455 59.7327 194.161 59.9012C193.871 60.0681 193.662 60.2666 193.535 60.4968C193.407 60.7269 193.362 60.9879 193.4 61.2797C193.438 61.5714 193.559 61.8955 193.764 62.2517L194.929 64.2774L193.429 65.1398L192.091 62.8125C191.702 62.1373 191.482 61.4953 191.43 60.8866C191.379 60.2779 191.49 59.7265 191.764 59.2325C192.041 58.7368 192.472 58.3204 193.059 57.9833C193.642 57.6479 194.22 57.4799 194.793 57.4792C195.371 57.4797 195.913 57.6478 196.419 57.9835C196.93 58.3205 197.378 58.8223 197.761 59.4888L199.761 62.9669L190.934 68.0423ZM192.213 60.9702L193.37 62.9829L188.119 63.1463L186.934 61.0862L192.213 60.9702Z" fill="white"/>
<path d="M211.414 102.958L209.65 103.146L209.161 98.5685L200.802 99.4601L200.574 97.3195L210.698 96.2397L211.414 102.958Z" fill="white"/>
<path d="M201.355 107.32L201.358 105.013L211.535 108.543L211.531 111.317L201.344 114.812L201.347 112.506L209.206 109.966L209.206 109.887L201.355 107.32ZM205.357 107.182L205.349 112.631L203.669 112.628L203.677 107.179L205.357 107.182Z" fill="white"/>
<path d="M201.239 117.422L211.352 118.603L210.886 122.593C210.797 123.36 210.574 123.996 210.218 124.502C209.865 125.008 209.414 125.372 208.864 125.595C208.317 125.821 207.707 125.895 207.036 125.817C206.364 125.739 205.789 125.525 205.309 125.175C204.829 124.825 204.478 124.359 204.256 123.776C204.033 123.196 203.967 122.517 204.058 121.74L204.355 119.197L206.069 119.397L205.812 121.595C205.764 122.006 205.795 122.354 205.906 122.637C206.019 122.924 206.195 123.148 206.433 123.309C206.674 123.474 206.961 123.576 207.293 123.615C207.629 123.654 207.93 123.621 208.196 123.515C208.465 123.413 208.684 123.235 208.854 122.981C209.027 122.728 209.137 122.394 209.186 121.979L209.354 120.537L200.989 119.56L201.239 117.422Z" fill="white"/>
<path d="M199.66 128.333L200.188 126.088L209.294 131.843L208.658 134.543L197.942 135.626L198.471 133.38L206.702 132.698L206.72 132.621L199.66 128.333ZM203.588 129.11L202.339 134.414L200.704 134.029L201.953 128.725L203.588 129.11Z" fill="white"/>
<path d="M197.229 138.138L206.738 141.778L205.968 143.788L202.045 142.286L200.482 146.368L204.406 147.87L203.638 149.875L194.129 146.235L194.897 144.229L198.825 145.733L200.387 141.652L196.459 140.148L197.229 138.138Z" fill="white"/>
<path d="M200.512 152.736L202.081 153.566L198.17 160.957L196.601 160.127L198.059 157.372L190.628 153.44L191.623 151.559L199.054 155.491L200.512 152.736Z" fill="white"/>
<path d="M196.104 164.447L194.868 166.203L189.632 162.517L189.583 162.586L192.286 169.87L191.201 171.411L182.876 165.549L184.116 163.789L189.355 167.478L189.398 167.417L186.706 160.11L187.779 158.585L196.104 164.447Z" fill="white"/>
<path d="M175.778 173.918L177.205 172.313L183.498 177.911L184.463 176.826C184.738 176.516 184.921 176.218 185.013 175.931C185.104 175.649 185.108 175.38 185.025 175.124C184.942 174.868 184.775 174.628 184.522 174.403C184.272 174.181 184.017 174.045 183.759 173.997C183.5 173.949 183.238 173.989 182.973 174.117C182.709 174.245 182.44 174.463 182.166 174.77L180.613 176.516L179.321 175.366L181.105 173.36C181.623 172.778 182.162 172.366 182.723 172.124C183.284 171.883 183.842 171.814 184.398 171.917C184.956 172.023 185.487 172.301 185.992 172.75C186.495 173.197 186.837 173.693 187.019 174.236C187.202 174.784 187.214 175.352 187.056 175.938C186.898 176.53 186.563 177.113 186.052 177.687L183.385 180.685L175.778 173.918ZM182.891 172.893L181.348 174.627L179.532 169.698L181.111 167.922L182.891 172.893Z" fill="white"/>
</svg>
