<svg width="50" height="40" viewBox="0 0 50 40" fill="none" xmlns="http://www.w3.org/2000/svg">
<path d="M22.2665 11.6533C22.3453 12.1257 22.424 12.6769 22.424 13.228C22.424 13.8579 22.3453 14.4091 22.2665 14.8815L23.9988 16.4563C24.55 16.9287 24.7862 17.7161 24.4712 18.4248C24.3137 18.8185 24.0775 19.2909 23.92 19.6846L23.6838 20.0783C23.3689 20.472 23.1327 20.8657 22.8965 21.2594C22.424 21.8105 21.6366 22.0467 20.928 21.8105L18.7233 21.0231C17.8572 21.7318 16.9123 22.283 15.8887 22.6766L15.3376 24.9601C15.2588 25.7474 14.6289 26.2986 13.9203 26.3773C13.3691 26.4561 12.8179 26.4561 12.3455 26.4561C11.7943 26.4561 11.2432 26.4561 10.692 26.3773C9.98336 26.2986 9.35345 25.7474 9.27472 24.9601L8.72355 22.6766C7.69995 22.283 6.75509 21.7318 5.88897 21.0231L3.68429 21.8105C2.97565 22.0467 2.18826 21.8105 1.71583 21.2594C1.47962 20.8657 1.16467 20.472 0.928451 20.0783L0.692236 19.6846C0.53476 19.2909 0.298545 18.8185 0.141068 18.4248C-0.173886 17.7161 0.0623295 16.9287 0.613498 16.4563L2.34574 14.8815C2.267 14.4091 2.18826 13.8579 2.18826 13.228C2.18826 12.6769 2.267 12.1257 2.34574 11.6533L0.613498 10.0785C0.0623295 9.52734 -0.173886 8.73996 0.141068 8.11005C0.298545 7.63762 0.53476 7.24393 0.692236 6.85024L0.928451 6.45654C1.16467 6.06285 1.47962 5.66916 1.71583 5.27547C2.18826 4.7243 2.97565 4.48809 3.68429 4.7243L5.88897 5.51168C6.75509 4.80304 7.69995 4.25187 8.72355 3.85818L9.27472 1.57477C9.35345 0.787383 9.98336 0.236215 10.692 0.157477C11.2432 0.0787383 11.7943 0 12.3455 0C12.8179 0 13.3691 0.0787383 13.9203 0.157477C14.6289 0.236215 15.2588 0.787383 15.3376 1.57477L15.8887 3.85818C16.9123 4.25187 17.8572 4.80304 18.7233 5.51168L20.928 4.7243C21.6366 4.48809 22.424 4.7243 22.8965 5.27547C23.1327 5.66916 23.3689 6.06285 23.6838 6.45654L23.92 6.85024C24.0775 7.24393 24.3137 7.63762 24.4712 8.11005C24.7862 8.73996 24.55 9.52734 23.9988 10.0785L22.2665 11.6533ZM12.3455 9.4486C10.2196 9.4486 8.56607 11.1808 8.56607 13.228C8.56607 15.354 10.2196 17.0075 12.3455 17.0075C14.3927 17.0075 16.125 15.354 16.125 13.228C16.125 11.1808 14.3927 9.4486 12.3455 9.4486ZM37.8567 37.0858C37.3843 37.1645 36.8331 37.1645 36.282 37.1645C35.6521 37.1645 35.1009 37.1645 34.6285 37.0858L33.0537 38.818C32.5025 39.3692 31.7939 39.6054 31.0852 39.2904C30.6915 39.133 30.2191 38.8967 29.8254 38.7393L29.4317 38.4243C29.038 38.1881 28.6443 37.9519 28.2507 37.7157C27.6995 37.2432 27.4633 36.4559 27.6995 35.7472L28.4869 33.5425C27.7782 32.6764 27.2271 31.7316 26.8334 30.6292L24.55 30.1568C23.7626 29.9993 23.2114 29.4481 23.1327 28.7395C23.0539 28.1883 23.0539 27.6372 23.0539 27.086C23.0539 26.6136 23.0539 26.0624 23.1327 25.5112C23.2114 24.8026 23.7626 24.1727 24.55 24.0152L26.8334 23.5428C27.2271 22.5192 27.7782 21.5743 28.4869 20.7082L27.6995 18.5035C27.4633 17.7949 27.6995 17.0075 28.2507 16.5351C28.6443 16.2988 29.038 15.9839 29.4317 15.7477L29.8254 15.5115C30.2191 15.354 30.6128 15.1178 31.0852 14.9603C31.7939 14.6453 32.5025 14.8815 33.0537 15.4327L34.6285 17.165C35.1009 17.0862 35.6521 17.0075 36.282 17.0075C36.8331 17.0075 37.3843 17.0862 37.8567 17.165L39.4315 15.4327C39.9827 14.8815 40.6913 14.6453 41.4 14.9603C41.8724 15.1178 42.2661 15.354 42.6598 15.5115L43.0535 15.7477C43.4472 15.9839 43.8409 16.2988 44.2345 16.5351C44.7857 17.0075 45.0219 17.7949 44.7857 18.5035L43.9983 20.7082C44.707 21.5743 45.2581 22.5192 45.6518 23.5428L47.9352 24.0152C48.7226 24.1727 49.2738 24.8026 49.3525 25.5112C49.4313 26.0624 49.51 26.6136 49.51 27.086C49.51 27.6372 49.4313 28.1883 49.3525 28.7395C49.2738 29.4481 48.7226 29.9993 47.9352 30.1568L45.6518 30.6292C45.2581 31.7316 44.707 32.6764 43.9983 33.5425L44.7857 35.7472C45.0219 36.4559 44.7857 37.2432 44.2345 37.7157C43.8409 37.9519 43.4472 38.1881 43.0535 38.4243L42.6598 38.7393C42.2661 38.8967 41.7937 39.133 41.4 39.2904C40.6913 39.6054 39.9827 39.3692 39.4315 38.818L37.8567 37.0858ZM40.0614 27.086C40.0614 25.0388 38.3292 23.3066 36.282 23.3066C34.156 23.3066 32.5025 25.0388 32.5025 27.086C32.5025 29.2119 34.156 30.8654 36.282 30.8654C38.3292 30.8654 40.0614 29.2119 40.0614 27.086Z" fill="#AEAEAE"/>
</svg>
