<svg width="28" height="25" viewBox="0 0 28 25" fill="none" xmlns="http://www.w3.org/2000/svg">
<path d="M5.57624 1.88568C6.27664 0.754274 7.5158 0 8.86272 0H18.1834C19.5303 0 20.7695 0.754274 21.4699 1.88568L26.4804 10.0749C27.2347 11.3141 27.2347 12.8765 26.4804 14.1157L21.4699 22.305C20.7695 23.4364 19.5303 24.1368 18.1834 24.1368H8.86272C7.5158 24.1368 6.27664 23.4364 5.57624 22.305L0.565705 14.1157C-0.188569 12.8765 -0.188569 11.3141 0.565705 10.0749L5.57624 1.88568ZM19.7458 9.69781C20.3385 9.10516 20.3385 8.18926 19.7458 7.59662C19.1532 7.00397 18.2373 7.00397 17.6446 7.59662L11.8259 13.4153L9.40149 11.0447C8.80884 10.4521 7.89294 10.4521 7.30029 11.0447C6.70765 11.6374 6.70765 12.5533 7.30029 13.1459L10.7484 16.594C11.341 17.1867 12.257 17.1867 12.8496 16.594L19.7458 9.69781Z" fill="#DEDEDE"/>
</svg>
