<svg width="20" height="17" viewBox="0 0 20 17" fill="none" xmlns="http://www.w3.org/2000/svg">
<path d="M2.8125 0C3.32031 0 3.75 0.429688 3.75 0.9375V2.8125C3.75 3.35938 3.32031 3.75 2.8125 3.75H0.9375C0.390625 3.75 0 3.35938 0 2.8125V0.9375C0 0.429688 0.390625 0 0.9375 0H2.8125ZM18.125 0.625C18.7891 0.625 19.375 1.21094 19.375 1.875C19.375 2.57812 18.7891 3.125 18.125 3.125H6.875C6.17188 3.125 5.625 2.57812 5.625 1.875C5.625 1.21094 6.17188 0.625 6.875 0.625H18.125ZM18.125 6.875C18.7891 6.875 19.375 7.46094 19.375 8.125C19.375 8.82812 18.7891 9.375 18.125 9.375H6.875C6.17188 9.375 5.625 8.82812 5.625 8.125C5.625 7.46094 6.17188 6.875 6.875 6.875H18.125ZM18.125 13.125C18.7891 13.125 19.375 13.7109 19.375 14.375C19.375 15.0781 18.7891 15.625 18.125 15.625H6.875C6.17188 15.625 5.625 15.0781 5.625 14.375C5.625 13.7109 6.17188 13.125 6.875 13.125H18.125ZM0 7.1875C0 6.67969 0.390625 6.25 0.9375 6.25H2.8125C3.32031 6.25 3.75 6.67969 3.75 7.1875V9.0625C3.75 9.60938 3.32031 10 2.8125 10H0.9375C0.390625 10 0 9.60938 0 9.0625V7.1875ZM2.8125 12.5C3.32031 12.5 3.75 12.9297 3.75 13.4375V15.3125C3.75 15.8594 3.32031 16.25 2.8125 16.25H0.9375C0.390625 16.25 0 15.8594 0 15.3125V13.4375C0 12.9297 0.390625 12.5 0.9375 12.5H2.8125Z" fill="white"/>
</svg>
