<svg width="17" height="22" viewBox="0 0 17 22" fill="none" xmlns="http://www.w3.org/2000/svg">
<path d="M7.03989 20.9521C4.86088 18.2283 0 11.7332 0 8.04559C0 3.60375 3.56185 0 8.04559 0C12.4874 0 16.0912 3.60375 16.0912 8.04559C16.0912 11.7332 11.1884 18.2283 9.00938 20.9521C8.50653 21.5806 7.54274 21.5806 7.03989 20.9521ZM8.04559 10.7275C9.51223 10.7275 10.7275 9.55414 10.7275 8.04559C10.7275 6.57894 9.51223 5.36373 8.04559 5.36373C6.53704 5.36373 5.36373 6.57894 5.36373 8.04559C5.36373 9.55414 6.53704 10.7275 8.04559 10.7275Z" fill="#DEDEDE"/>
</svg>
