<svg width="19" height="25" viewBox="0 0 19 25" fill="none" xmlns="http://www.w3.org/2000/svg">
<path d="M8.13961 24.225C5.62021 21.0758 0 13.566 0 9.30241C0 4.1667 4.11825 0 9.30241 0C14.4381 0 18.6048 4.1667 18.6048 9.30241C18.6048 13.566 12.9362 21.0758 10.4168 24.225C9.83536 24.9518 8.72101 24.9518 8.13961 24.225ZM9.30241 12.4032C10.9982 12.4032 12.4032 11.0466 12.4032 9.30241C12.4032 7.60666 10.9982 6.20161 9.30241 6.20161C7.55821 6.20161 6.20161 7.60666 6.20161 9.30241C6.20161 11.0466 7.55821 12.4032 9.30241 12.4032Z" fill="white"/>
</svg>
