<svg width="20" height="20" viewBox="0 0 20 20" fill="none" xmlns="http://www.w3.org/2000/svg">
<path d="M19.5711 14.8078L18.6519 18.676C18.537 19.2505 18.0774 19.6335 17.5029 19.6335C7.85142 19.5952 0 11.7438 0 2.0923C0 1.51781 0.344697 1.05821 0.919191 0.943311L4.78745 0.0241199C5.32365 -0.090779 5.89814 0.215618 6.12794 0.713513L7.92802 4.88817C8.11952 5.38607 8.00462 5.96056 7.58333 6.26696L5.51515 7.95214C6.81733 10.5948 8.96211 12.7396 11.6431 14.0418L13.3283 11.9736C13.6347 11.5906 14.2092 11.4374 14.7071 11.6289L18.8817 13.429C19.3796 13.6971 19.686 14.2716 19.5711 14.8078Z" fill="white"/>
</svg>
