<svg width="27" height="22" viewBox="0 0 27 22" fill="none" xmlns="http://www.w3.org/2000/svg">
<path d="M15.4207 0C16.5102 0 17.4321 0.92189 17.4321 2.0114V4.02279H19.5273C20.2397 4.02279 20.9101 4.31612 21.4549 4.81897L24.6815 8.04559C25.1844 8.54844 25.4777 9.26081 25.4777 9.97318V14.7502C26.1901 14.7502 26.8186 15.3788 26.8186 16.0912C26.8186 16.8455 26.1901 17.4321 25.4777 17.4321H24.1368C24.1368 19.653 22.3349 21.4549 20.114 21.4549C17.8512 21.4549 16.0912 19.653 16.0912 17.4321H10.7275C10.7275 19.653 8.92557 21.4549 6.70466 21.4549C4.44184 21.4549 2.68186 19.653 2.68186 17.4321H2.0114C0.879986 17.4321 0 16.5521 0 15.4207V2.0114C0 0.92189 0.879986 0 2.0114 0H15.4207ZM17.4321 6.70466V10.7275H22.7958V9.97318L19.5273 6.70466H17.4321ZM6.70466 15.4207C5.57325 15.4207 4.69326 16.3426 4.69326 17.4321C4.69326 18.5635 5.57325 19.4435 6.70466 19.4435C7.79416 19.4435 8.71605 18.5635 8.71605 17.4321C8.71605 16.3426 7.79416 15.4207 6.70466 15.4207ZM20.114 19.4435C21.2035 19.4435 22.1254 18.5635 22.1254 17.4321C22.1254 16.3426 21.2035 15.4207 20.114 15.4207C18.9826 15.4207 18.1026 16.3426 18.1026 17.4321C18.1026 18.5635 18.9826 19.4435 20.114 19.4435Z" fill="#DEDEDE"/>
</svg>
